<?xml version="1.0" encoding="UTF-8" standalone="no"?>
<!-- Generator: Adobe Illustrator 15.0.1, SVG Export Plug-In . SVG Version: 6.00 Build 0)  -->

<svg
   version="1.1"
   id="Layer_1"
   x="0px"
   y="0px"
   width="512"
   height="512"
   viewBox="0 0 512 512"
   enable-background="new 0 0 512 512"
   xml:space="preserve"
   sodipodi:docname="html5-logo.svg"
   inkscape:export-filename="html5_transformacion_final.jpg"
   inkscape:export-xdpi="96"
   inkscape:export-ydpi="96"
   inkscape:version="1.3.2 (091e20e, 2023-11-25, custom)"
   xmlns:inkscape="http://www.inkscape.org/namespaces/inkscape"
   xmlns:sodipodi="http://sodipodi.sourceforge.net/DTD/sodipodi-0.dtd"
   xmlns="http://www.w3.org/2000/svg"
   xmlns:svg="http://www.w3.org/2000/svg"><defs
   id="defs11" /><sodipodi:namedview
   id="namedview11"
   pagecolor="#ffffff"
   bordercolor="#000000"
   borderopacity="0.25"
   inkscape:showpageshadow="2"
   inkscape:pageopacity="0.0"
   inkscape:pagecheckerboard="0"
   inkscape:deskcolor="#d1d1d1"
   inkscape:zoom="1.1338568"
   inkscape:cx="227.98294"
   inkscape:cy="196.2329"
   inkscape:window-width="1207"
   inkscape:window-height="1001"
   inkscape:window-x="587"
   inkscape:window-y="39"
   inkscape:window-maximized="0"
   inkscape:current-layer="Layer_1" />
<g
   id="g5"
   style="display:inline">
		
	<text
   xml:space="preserve"
   style="font-style:normal;font-variant:normal;font-weight:bold;font-stretch:normal;font-size:83.0583px;line-height:0.3;font-family:Arial;-inkscape-font-specification:'Arial Bold';letter-spacing:0px;fill:#000000;fill-opacity:1;stroke-width:1.34647"
   x="167.1653"
   y="59.582767"
   id="text19"
   transform="scale(0.86211103,1.1599434)"><tspan
     sodipodi:role="line"
     id="tspan19"
     x="167.1653"
     y="59.582767"
     style="font-size:83.0583px;fill:#000000;stroke-width:1.34647">W</tspan></text><text
   xml:space="preserve"
   style="font-style:normal;font-variant:normal;font-weight:bold;font-stretch:normal;font-size:107.543px;line-height:0.3;font-family:Arial;-inkscape-font-specification:'Arial Bold';letter-spacing:0px;fill:#000000;fill-opacity:1;stroke-width:1.7434"
   x="190.59241"
   y="77.035881"
   id="text19-6"
   transform="scale(1.1174791,0.89487133)"><tspan
     sodipodi:role="line"
     id="tspan19-0"
     x="190.59241"
     y="77.035881"
     style="font-size:107.543px;fill:#000000;stroke-width:1.7434">E</tspan></text><text
   xml:space="preserve"
   style="font-style:normal;font-variant:normal;font-weight:bold;font-stretch:normal;font-size:111.685px;line-height:0.3;font-family:Arial;-inkscape-font-specification:'Arial Bold';letter-spacing:0px;fill:#000000;fill-opacity:1;stroke-width:1.81054"
   x="246.81766"
   y="79.976921"
   id="text19-6-7"
   transform="scale(1.1592008,0.86266332)"><tspan
     sodipodi:role="line"
     id="tspan19-0-4"
     x="246.81766"
     y="79.976921"
     style="font-size:111.685px;fill:#000000;stroke-width:1.81054">B</tspan></text></g>
<polygon
   fill="#e34e26"
   points="404.549,470.755 255.769,512 107.125,470.727 74.012,99.297 437.703,99.297 "
   id="polygon6"
   style="display:inline;fill:#d40000" /><polygon
   fill="#ef662a"
   points="255.857,129.657 255.857,480.449 376.164,447.101 404.51,129.657 "
   id="polygon7"
   style="display:inline;fill:#ff0000" /><polygon
   fill="#ffffff"
   points="361.744,267.429 195.706,267.429 191.538,220.777 365.732,220.777 365.873,220.777 369.953,175.217 141.761,175.217 154.041,312.978 311.936,312.978 306.637,372.066 255.799,385.811 205.057,372.085 201.664,334.146 155.937,334.146 162.476,407.282 255.787,433.199 349.219,407.282 "
   id="polygon8"
   style="display:inline;fill:#1a1a1a" /><g
   id="g10"
   style="display:inline;fill:#000000">
			<polygon
   fill="#ebebeb"
   points="154.041,312.978 255.857,312.978 255.857,267.429 195.706,267.429 191.538,220.777 255.857,220.777 255.857,175.217 141.761,175.217 "
   id="polygon9"
   style="fill:#000000" />
			<polygon
   fill="#ebebeb"
   points="205.057,372.085 201.664,334.146 155.937,334.146 162.476,407.282 255.787,433.199 255.857,433.179 255.857,385.791 255.799,385.811 "
   id="polygon10"
   style="fill:#000000" />
		</g>
</svg>
